<?xml version="1.0" standalone="no"?>
<!DOCTYPE svg PUBLIC "-//W3C//DTD SVG 20010904//EN"
 "http://www.w3.org/TR/2001/REC-SVG-20010904/DTD/svg10.dtd">
<svg version="1.0" xmlns="http://www.w3.org/2000/svg"
 width="500.000000pt" height="500.000000pt" viewBox="0 0 500.000000 500.000000"
 preserveAspectRatio="xMidYMid meet">
<metadata>
Created by potrace 1.14, written by Peter Selinger 2001-2017
</metadata>
<g transform="translate(0.000000,500.000000) scale(0.100000,-0.100000)"
fill="#000000" stroke="none">
<path d="M1921 3634 c-55 -97 -101 -182 -101 -189 0 -25 104 -195 120 -195 9
0 49 60 100 152 47 83 92 160 100 171 15 17 30 19 221 19 114 0 210 3 216 7
13 9 113 184 113 199 0 9 -78 12 -334 12 l-333 0 -102 -176z"/>
<path d="M2959 3713 c-31 -54 -82 -143 -114 -198 -32 -55 -67 -116 -77 -135
-11 -19 -24 -39 -29 -45 -6 -6 -90 -10 -207 -11 -108 -1 -204 -2 -214 -3 -15
-1 -31 -24 -85 -121 -126 -225 -267 -460 -277 -460 -6 0 -70 101 -141 225 -72
123 -135 225 -140 225 -6 0 -44 -57 -85 -127 -41 -70 -79 -135 -85 -145 -5 -9
-17 -29 -26 -45 -66 -120 -84 -151 -100 -175 -11 -14 -19 -28 -19 -31 0 -2
-20 -38 -45 -79 -25 -42 -45 -80 -45 -86 0 -6 27 -55 59 -110 32 -55 72 -124
89 -154 56 -101 221 -383 237 -406 9 -12 20 -20 25 -17 7 4 43 64 117 195 85
150 150 253 158 253 11 0 52 -67 236 -385 l114 -198 215 0 215 0 75 -131 c41
-71 105 -180 141 -242 l65 -112 206 -1 c263 -2 313 12 411 111 127 130 124
361 -8 486 -112 107 -118 108 -703 107 -266 0 -488 4 -492 8 -18 19 -340 584
-340 596 0 8 24 54 53 104 29 49 104 179 167 289 63 110 116 202 118 205 2 2
227 5 500 6 538 1 549 2 634 56 100 63 158 162 163 278 8 156 -76 286 -223
346 -52 21 -71 23 -272 24 l-215 0 -56 -97z m482 -139 c64 -33 87 -119 49
-181 -38 -64 -51 -67 -272 -68 -109 0 -204 2 -210 6 -7 4 15 52 61 132 l72
126 57 3 c107 6 213 -2 243 -18z m-1682 -949 l69 -120 -24 -45 c-13 -25 -39
-72 -59 -105 -19 -33 -40 -70 -47 -82 -6 -13 -16 -23 -22 -23 -6 0 -44 57 -83
126 l-73 126 72 124 c44 78 76 124 84 122 8 -2 45 -57 83 -123z m1698 -975
c60 -48 68 -138 17 -193 -38 -42 -62 -47 -204 -47 l-130 0 -25 48 c-26 48 -38
69 -88 155 -15 26 -25 52 -21 58 4 7 75 9 213 7 203 -3 207 -3 238 -28z"/>
<path d="M1873 1666 c-29 -52 -53 -101 -53 -109 0 -13 175 -322 200 -352 9
-11 68 -14 341 -14 289 0 329 2 329 16 0 8 -25 57 -55 109 l-55 94 -217 2
-216 3 -98 170 c-53 94 -103 171 -111 172 -7 2 -35 -37 -65 -91z"/>
</g>
</svg>
