<?xml version="1.0" standalone="no"?>
<!DOCTYPE svg PUBLIC "-//W3C//DTD SVG 20010904//EN"
 "http://www.w3.org/TR/2001/REC-SVG-20010904/DTD/svg10.dtd">
<svg version="1.0" xmlns="http://www.w3.org/2000/svg"
 width="256.000000pt" height="256.000000pt" viewBox="0 0 256.000000 256.000000"
 preserveAspectRatio="xMidYMid meet">
<metadata>
Created by potrace 1.14, written by Peter Selinger 2001-2017
</metadata>
<g transform="translate(0.000000,256.000000) scale(0.100000,-0.100000)"
fill="#000000" stroke="none">
<path d="M921 2442 c-50 -136 -328 -871 -406 -1077 -29 -77 -76 -203 -105
-280 -28 -77 -56 -149 -61 -160 -11 -26 -168 -441 -181 -480 -5 -16 -14 -39
-19 -50 -5 -11 -34 -87 -64 -170 -31 -82 -62 -167 -70 -187 l-15 -37 333 0
332 0 44 122 c23 67 65 187 93 267 27 80 52 147 54 149 3 3 747 4 810 2 6 -1
51 -108 99 -238 49 -131 94 -253 101 -271 l13 -32 340 0 c188 0 341 2 341 4 0
4 -25 68 -40 101 -5 11 -97 250 -205 530 -109 281 -203 524 -210 540 -7 17
-43 109 -80 205 -37 96 -98 254 -136 350 -67 172 -133 343 -259 668 l-63 162
-301 0 -301 0 -44 -118z m455 -1054 c52 -156 94 -284 94 -285 0 -2 -94 -3
-209 -3 l-209 0 65 168 c36 92 85 222 110 290 26 67 48 120 51 117 3 -3 47
-132 98 -287z"/>
</g>
</svg>
